<svg version="1.1" viewBox="0 0 24 24" xmlns="http://www.w3.org/2000/svg" xmlns:xlink="http://www.w3.org/1999/xlink">
<style>
  .c1 {
    fill: black;
  }
  @media (prefers-color-scheme: dark) {
    .c1 {
      fill: white;
    }
  }
</style>
  <path class="c1" d="M11 17v-10h-7v10h7m0-14l-8.74228e-08 1.77636e-15c1.10457-4.82823e-08 2 .89543 2 2v14h1.77636e-15c0 1.10457-.895431 2-2 2h-7c-1.11 0-2-.9-2-2v-14l2.13163e-14 3.01992e-07c-1.66785e-07-1.10457.89543-2 2-2h7m5.5-2.30926e-14h5l-6.55671e-08 1.77636e-15c.828427-3.62117e-08 1.5.671573 1.5 1.5v3 0c0 .828427-.671573 1.5-1.5 1.5h-3.5l-3 3v-3 -4.5l1.77636e-14 2.26494e-07c-1.25089e-07-.828427.671573-1.5 1.5-1.5Z"></path>
</svg>